<svg width="32" height="49" viewBox="0 0 32 49" fill="none" xmlns="http://www.w3.org/2000/svg">
<g clip-path="url(#clip0_34_5727)">
<path d="M17.7986 0.0866368C12.142 0.922315 7.74459 4.93646 7.17839 9.92165V20.8974C4.05984 21.9099 1.49676 23.9026 0 26.4403V10.2122C0 4.5827 5.3119 0 11.8437 0H16C16.6073 0 17.2092 0.0270744 17.7986 0.0866368Z" fill="#00B5E8"/>
<path d="M31.9999 35.205C31.9999 42.1684 25.9861 47.9423 18.2004 48.87L18.1004 48.8827C12.5295 48.1733 8.1214 44.3956 7.27478 39.5981C7.53381 40.5923 8.16029 41.4483 9.02517 41.9897C9.86795 42.5322 10.848 42.8167 11.8472 42.8091H15.9999C20.8635 42.8091 24.8216 39.396 24.8216 35.2032C24.8216 32.2503 22.8568 29.6873 20.0098 28.4275C22.5857 27.9169 25.0262 26.8634 27.1721 25.3357C30.1477 27.8427 31.9999 31.3424 31.9999 35.205Z" fill="#0052CC"/>
<path d="M18.0969 48.8827C17.9272 48.9007 17.7557 48.9206 17.5825 48.9314C17.4092 48.9423 17.2449 48.9603 17.0735 48.9693C16.902 48.9783 16.6787 48.9874 16.4769 48.9946H16H11.8437C5.3119 48.9946 0 44.4119 0 38.7824V31.6168C0 25.9855 5.3119 21.4046 11.8437 21.4046H15.7732C10.7988 22.7077 7.18196 26.6948 7.18196 31.4074C7.18196 31.4778 7.18196 31.5464 7.18196 31.6168V38.7878C7.18188 38.9168 7.18903 39.0458 7.20339 39.174C7.20339 39.2209 7.21768 39.2715 7.22483 39.3166C7.23197 39.3617 7.23912 39.4069 7.24626 39.4538C7.25341 39.5007 7.26412 39.5531 7.27484 39.5982C8.11788 44.3957 12.526 48.1734 18.0969 48.8827Z" fill="#00B5E8"/>
<path d="M31.9785 13.7986C31.9991 15.9584 31.4292 18.082 30.3317 19.9354C30.296 20.0003 30.2549 20.0653 30.2156 20.1303C29.617 21.1232 28.8969 22.0359 28.0723 22.8467C27.9955 22.9243 27.9169 23.0019 27.8383 23.0759C27.7597 23.1499 27.6597 23.2402 27.5758 23.3178C24.7412 25.8627 20.8278 27.4258 16.734 27.5846C16.4894 27.5936 16.2464 27.6009 15.9982 27.6009H11.8437C11.7544 27.6009 11.6651 27.6009 11.5704 27.6099C11.5024 27.6105 11.4344 27.6147 11.3668 27.6225C10.3086 27.7055 9.304 28.1265 8.49828 28.8246L8.48221 28.839C8.35264 28.9558 8.23036 29.0806 8.11605 29.2127C8.07935 29.25 8.04589 29.2905 8.01603 29.3336C7.72937 29.6853 7.50901 30.0873 7.36589 30.5194C7.3117 30.6777 7.26989 30.84 7.24086 31.0049C7.21814 31.1381 7.20263 31.2725 7.19442 31.4074C7.19442 26.6948 10.8113 22.7077 15.7856 21.4046H16C16.1464 21.4046 16.2947 21.4046 16.4411 21.3955H16.4804C16.6215 21.3955 16.7608 21.3793 16.9002 21.3667C17.0127 21.3576 17.1234 21.345 17.2306 21.3324C20.6796 20.9461 23.6338 18.6358 24.5233 15.7534C24.831 14.7148 24.8874 13.6167 24.6875 12.5516C24.4876 11.4865 24.0374 10.4855 23.3748 9.63287C21.9459 7.76116 19.4793 6.42733 16.8787 6.236C16.7394 6.22156 16.6001 6.21254 16.459 6.20532H16.4376C16.2947 6.20532 16.1464 6.1963 16 6.1963H11.8437C10.8138 6.18826 9.80527 6.49256 8.94838 7.06988C7.87672 7.80629 7.17834 8.94519 7.17834 10.2195V9.92165C7.74454 4.93646 12.142 0.922318 17.8021 0.0866394L17.9075 0.0992738C22.9479 0.629921 27.5918 3.32828 30.0317 7.17456C31.2878 9.15194 31.9629 11.4489 31.9785 13.7986Z" fill="#0055CC"/>
<path opacity="0.5" d="M18.2004 48.87L18.1004 48.8827C12.5295 48.1733 8.1214 44.3956 7.27478 39.5982C7.53381 40.5924 8.16029 41.4483 9.02517 41.9897C9.08411 42.1611 11.0917 47.4821 18.2004 48.87Z" fill="#1F1E21"/>
<path opacity="0.5" d="M8.97881 6.99949C8.97881 7.01573 8.96273 7.03017 8.95559 7.04641V7.06266C7.88392 7.79907 7.18555 8.93797 7.18555 10.2122V9.92165C7.75174 4.93646 12.1492 0.922318 17.8093 0.0866394C17.829 0.0884443 12.3688 0.76529 8.97881 6.99949Z" fill="#1F1E21"/>
<path opacity="0.5" d="M15.7267 21.419C9.13598 23.7095 8.48941 28.8192 8.48941 28.8192L8.47334 28.8336C8.34377 28.9504 8.22149 29.0752 8.10718 29.2072C8.07048 29.2446 8.03702 29.285 8.00716 29.3282C7.7205 29.6799 7.50014 30.0819 7.35701 30.514C7.30282 30.6723 7.26102 30.8346 7.23199 30.9995C7.20927 31.1327 7.19376 31.2671 7.18555 31.402C7.18555 26.711 10.7774 22.7348 15.7267 21.419Z" fill="#1F1E21"/>
<path d="M17.7986 0.0866368C12.1419 0.922315 7.74454 4.93646 7.17834 9.92165V20.8974C6.9515 20.9714 6.72824 21.049 6.50854 21.1338V9.92165C7.07474 4.93646 11.4722 0.922315 17.1288 0.0866368C16.5394 0.0270744 15.9374 0 15.3302 0H15.9999C16.6072 0 17.2091 0.0270744 17.7986 0.0866368Z" fill="#FFAB00"/>
<path d="M17.5823 48.9314H17.5234C12.149 48.2834 7.41398 44.1971 6.6013 39.5927C6.59059 39.5476 6.57987 39.497 6.57272 39.4483C6.56558 39.3996 6.55844 39.3545 6.55129 39.3111C6.54415 39.2678 6.537 39.2155 6.52986 39.1685C6.51549 39.0403 6.50834 38.9113 6.50842 38.7823V31.6168C6.50842 31.5464 6.50842 31.4778 6.50842 31.4074C6.50842 26.6947 10.1253 22.7077 15.0996 21.4045H15.7694C10.7951 22.7077 7.17822 26.6947 7.17822 31.4074C7.17822 31.4778 7.17822 31.5464 7.17822 31.6168V38.7877C7.17813 38.9168 7.18529 39.0457 7.19965 39.174C7.19965 39.2209 7.21394 39.2714 7.22108 39.3165C7.22823 39.3617 7.23537 39.4068 7.24252 39.4537C7.24966 39.5007 7.26038 39.553 7.27109 39.5981C8.11771 44.3956 12.5258 48.1733 18.0967 48.8826C17.927 48.9007 17.7556 48.9205 17.5823 48.9314Z" fill="#FFAB00"/>
</g>
<defs>
<clipPath id="clip0_34_5727">
<rect width="32" height="49" fill="white"/>
</clipPath>
</defs>
</svg>
